<?xml version="1.0" standalone="no"?>
<!DOCTYPE svg PUBLIC "-//W3C//DTD SVG 20010904//EN"
 "http://www.w3.org/TR/2001/REC-SVG-20010904/DTD/svg10.dtd">
<svg version="1.0" xmlns="http://www.w3.org/2000/svg"
 width="500.000000pt" height="297.000000pt" viewBox="0 0 500.000000 297.000000"
 preserveAspectRatio="xMidYMid meet">

<g transform="translate(0.000000,297.000000) scale(0.100000,-0.100000)"
fill="#000000" stroke="none">
<path d="M1895 2253 c-268 -14 -587 -81 -763 -158 -78 -34 -195 -96 -220 -117
-9 -8 -70 -8 -210 1 -109 6 -212 8 -230 5 -39 -8 -57 -35 -43 -63 8 -15 4 -32
-19 -77 -16 -33 -32 -79 -36 -104 -4 -32 -16 -55 -40 -80 -49 -51 -70 -112
-84 -236 -14 -129 -4 -215 35 -301 30 -67 101 -142 162 -173 45 -23 60 -25
233 -29 l185 -3 40 -51 c24 -31 63 -63 100 -83 57 -32 65 -34 165 -34 89 0
113 4 155 24 61 28 107 66 134 110 l21 33 462 7 c255 4 690 13 968 21 278 8
521 15 541 15 31 0 37 -5 52 -35 26 -55 91 -119 151 -148 49 -24 66 -27 159
-27 96 0 108 2 166 31 114 57 181 172 181 310 0 136 -72 249 -198 311 -58 29
-76 33 -147 33 -69 0 -89 -4 -145 -31 -142 -67 -222 -206 -205 -356 l7 -61
-298 7 c-165 4 -443 11 -619 16 -176 5 -426 10 -556 10 -130 0 -291 3 -357 7
l-122 6 0 63 c0 132 -80 253 -202 310 -53 24 -76 29 -143 29 -69 0 -89 -4
-145 -31 -36 -17 -76 -42 -90 -55 -74 -70 -128 -200 -117 -281 l5 -38 -156 0
c-180 0 -209 10 -269 88 -47 62 -58 110 -57 242 2 142 14 187 64 245 22 25 42
56 44 68 3 12 7 38 11 57 3 19 20 66 38 103 l32 69 193 -7 193 -7 77 49 c169
106 354 171 613 213 178 29 201 31 434 38 359 12 680 -14 852 -69 125 -40 340
-149 485 -245 l113 -76 165 -29 c91 -16 294 -52 451 -79 158 -27 297 -54 310
-59 57 -22 104 -87 115 -162 4 -24 18 -60 33 -79 14 -19 29 -46 32 -60 l7 -25
1 25 c1 15 -11 40 -29 60 -16 19 -29 45 -30 57 0 33 -29 113 -51 143 -11 14
-34 34 -50 44 -28 16 -294 74 -769 167 l-155 31 -140 93 c-200 133 -364 215
-520 260 -192 55 -630 86 -970 68z m-593 -893 c106 -50 172 -156 172 -275 0
-170 -126 -295 -298 -295 -91 0 -151 24 -212 85 -85 85 -114 196 -78 302 33
97 104 169 199 200 57 18 160 11 217 -17z m2646 -4 c65 -33 107 -77 140 -146
67 -141 2 -327 -136 -392 -63 -30 -174 -36 -240 -14 -139 46 -228 210 -193
353 48 189 257 286 429 199z"/>
<path d="M1991 1724 c-17 -64 -17 -75 9 -177 28 -113 30 -110 -65 -126 -88
-16 -221 -13 -289 4 -33 9 -61 13 -64 11 -2 -3 2 -24 9 -48 13 -40 17 -43 54
-46 98 -9 274 21 378 63 12 5 17 2 17 -8 0 -32 30 -47 89 -47 78 0 111 24 111
81 0 22 -7 55 -14 74 -13 31 -19 35 -50 35 l-35 0 32 -60 c31 -59 32 -61 13
-75 -11 -8 -39 -15 -63 -15 -62 0 -71 19 -93 205 -10 86 -20 159 -23 162 -3 3
-10 -12 -16 -33z"/>
<path d="M2545 1710 c-16 -31 -16 -36 3 -104 12 -39 26 -105 32 -146 11 -77
30 -110 62 -110 24 0 24 37 -1 45 -22 7 -31 33 -31 96 0 54 -27 215 -39 237
-7 12 -12 9 -26 -18z"/>
<path d="M2172 1697 c-15 -17 1 -42 23 -33 18 6 17 37 -1 43 -6 2 -16 -2 -22
-10z"/>
<path d="M2137 1636 c-8 -20 20 -43 35 -28 14 14 3 42 -16 42 -7 0 -16 -6 -19
-14z"/>
<path d="M1811 1583 c-20 -24 -20 -27 -5 -44 10 -11 14 -25 10 -36 -6 -15 -5
-15 14 2 24 22 25 38 5 55 -11 9 -12 17 -4 31 14 27 4 23 -20 -8z"/>
<path d="M2680 1535 c0 -3 9 -24 21 -46 24 -49 22 -81 -8 -94 -13 -5 -23 -18
-23 -27 0 -27 37 -22 55 6 l16 24 24 -24 c30 -30 75 -33 75 -5 0 12 -9 21 -24
25 -26 6 -54 56 -63 112 -5 31 -9 34 -39 34 -19 0 -34 -2 -34 -5z"/>
<path d="M2875 1508 c19 -92 19 -109 -4 -115 -12 -3 -21 -13 -21 -24 0 -21 21
-25 51 -9 14 8 25 6 44 -6 20 -13 31 -15 50 -6 17 8 32 8 54 -1 27 -10 34 -9
52 10 21 21 21 21 4 102 -16 73 -20 81 -41 81 -28 0 -28 3 -9 -50 8 -23 15
-56 15 -72 0 -51 -23 -27 -49 50 -21 62 -27 72 -47 72 -13 0 -24 -1 -24 -2 0
-2 9 -27 20 -56 23 -61 25 -92 6 -92 -17 0 -47 61 -53 111 -5 33 -9 39 -31 39
-22 0 -24 -3 -17 -32z"/>
<path d="M2407 1426 c-6 -79 -28 -136 -71 -175 l-26 -24 36 -24 c19 -14 41
-22 48 -20 25 10 48 100 53 210 6 102 5 107 -14 107 -18 0 -21 -9 -26 -74z"/>
<path d="M2737 1286 c-7 -18 1 -26 25 -26 11 0 18 7 18 20 0 23 -35 28 -43 6z"/>
<path d="M2706 1225 c-6 -17 17 -31 34 -20 5 3 10 13 10 21 0 19 -36 18 -44
-1z"/>
<path d="M4558 1033 c7 -3 16 -2 19 1 4 3 -2 6 -13 5 -11 0 -14 -3 -6 -6z"/>
<path d="M4488 1023 c6 -2 18 -2 25 0 6 3 1 5 -13 5 -14 0 -19 -2 -12 -5z"/>
<path d="M4428 1013 c7 -3 16 -2 19 1 4 3 -2 6 -13 5 -11 0 -14 -3 -6 -6z"/>
<path d="M4358 1003 c7 -3 16 -2 19 1 4 3 -2 6 -13 5 -11 0 -14 -3 -6 -6z"/>
</g>
</svg>
